<?xml version="1.0" encoding="UTF-8"?>
<svg width="456" height="456" viewBox="0 0 456 456" xmlns="http://www.w3.org/2000/svg">
  <!-- Outer ring -->
  <circle cx="228" cy="228" r="178" fill="none" stroke="#2a2a4e" stroke-width="7"/>

  <!-- Spiral trajectory arcs -->
  <path d="M 228 50 A 178 178 0 0 1 406 228" fill="none" stroke="#00d9ff" stroke-width="5" stroke-linecap="round"/>
  <path d="M 406 228 A 178 178 0 0 1 228 406" fill="none" stroke="#00d9ff" stroke-width="5" stroke-linecap="round"/>
  <path d="M 228 80 A 148 148 0 0 1 376 228" fill="none" stroke="#2dd4bf" stroke-width="5" stroke-linecap="round"/>
  <path d="M 376 228 A 148 148 0 0 1 228 376" fill="none" stroke="#2dd4bf" stroke-width="5" stroke-linecap="round"/>
  <path d="M 228 110 A 118 118 0 0 1 346 228" fill="none" stroke="#4ecdc4" stroke-width="5" stroke-linecap="round"/>
  <path d="M 346 228 A 118 118 0 0 1 228 346" fill="none" stroke="#4ecdc4" stroke-width="5" stroke-linecap="round"/>
  <path d="M 228 140 A 88 88 0 0 1 316 228" fill="none" stroke="#22c55e" stroke-width="5" stroke-linecap="round"/>
  <path d="M 316 228 A 88 88 0 0 1 228 316" fill="none" stroke="#22c55e" stroke-width="5" stroke-linecap="round"/>
  <path d="M 228 170 A 58 58 0 0 1 286 228" fill="none" stroke="#00ff88" stroke-width="5" stroke-linecap="round"/>
  <path d="M 286 228 A 58 58 0 0 1 228 286" fill="none" stroke="#00ff88" stroke-width="5" stroke-linecap="round"/>

  <!-- Center point (attractor) -->
  <circle cx="228" cy="228" r="18" fill="#00ff88"/>
  <circle cx="228" cy="228" r="28" fill="none" stroke="#00ff88" stroke-width="3" opacity="0.5"/>

  <!-- Eigenvalue bars (bottom right) -->
  <rect x="340" y="340" width="18" height="54" rx="4" fill="#00d9ff"/>
  <rect x="366" y="358" width="18" height="36" rx="4" fill="#4ecdc4" opacity="0.8"/>
  <rect x="392" y="372" width="18" height="22" rx="4" fill="#a29bfe" opacity="0.6"/>
</svg>
